<?xml version="1.0" standalone="no"?><!DOCTYPE svg PUBLIC "-//W3C//DTD SVG 1.1//EN" "http://www.w3.org/Graphics/SVG/1.1/DTD/svg11.dtd"><svg t="1622467621580" class="icon" viewBox="0 0 1024 1024" version="1.1" xmlns="http://www.w3.org/2000/svg" p-id="2563" xmlns:xlink="http://www.w3.org/1999/xlink" width="200" height="200"><defs><style type="text/css"></style></defs><path d="M964.266667 499.2l-162.133333-162.133333L802.133333 115.2c0-12.8-8.533333-21.333333-21.333333-21.333333l-123.733333 0c-12.8 0-21.333333 8.533333-21.333333 21.333333L635.733333 170.666667l-110.933333-110.933333c-4.266667-4.266667-8.533333-4.266667-12.8-4.266667-4.266667 0-12.8 4.266667-12.8 4.266667L59.733333 499.2c-4.266667 4.266667-4.266667 8.533333-4.266667 12.8 0 12.8 8.533333 21.333333 21.333333 21.333333 4.266667 0 12.8-4.266667 12.8-4.266667l89.6-89.6 0 512c0 12.8 8.533333 21.333333 21.333333 21.333333l209.066667 0 209.066667 0 209.066667 0c12.8 0 21.333333-8.533333 21.333333-21.333333l0-512 89.6 89.6c4.266667 4.266667 8.533333 4.266667 12.8 4.266667 12.8 0 21.333333-8.533333 21.333333-21.333333C968.533333 507.733333 968.533333 499.2 964.266667 499.2zM678.4 136.533333l85.333333 0 0 157.866667-85.333333-85.333333L678.4 136.533333zM388.266667 930.133333 221.866667 930.133333l0-42.666667 166.4 0L388.266667 930.133333zM597.333333 930.133333 426.666667 930.133333 426.666667 597.333333 597.333333 597.333333 597.333333 930.133333zM802.133333 930.133333l-166.4 0 0-42.666667 166.4 0L802.133333 930.133333zM802.133333 844.8l-166.4 0 0-268.8c0-12.8-8.533333-21.333333-21.333333-21.333333L409.6 554.666667c-12.8 0-21.333333 8.533333-21.333333 21.333333l0 268.8L221.866667 844.8 221.866667 396.8 512 102.4l290.133333 290.133333L802.133333 844.8zM533.333333 802.133333c12.8 0 21.333333-8.533333 21.333333-21.333333 0-12.8-8.533333-21.333333-21.333333-21.333333S512 772.266667 512 780.8C512 793.6 520.533333 802.133333 533.333333 802.133333z" p-id="2564"></path></svg>