<?xml version="1.0" standalone="no"?><!DOCTYPE svg PUBLIC "-//W3C//DTD SVG 1.1//EN" "http://www.w3.org/Graphics/SVG/1.1/DTD/svg11.dtd"><svg t="1622553817383" class="icon" viewBox="0 0 1024 1024" version="1.1" xmlns="http://www.w3.org/2000/svg" p-id="2124" xmlns:xlink="http://www.w3.org/1999/xlink" width="200" height="200"><defs><style type="text/css"></style></defs><path d="M704.513149 711.729065l24.145197-24.128133 153.590751 153.590752-24.128132 24.128133zM153.661395 881.172034a38.734697 38.734697 0 0 0-55.627802 0 40.952983 40.952983 0 0 0 0 56.822264A38.734697 38.734697 0 0 0 153.661395 938.506211a40.782346 40.782346 0 0 0 0-56.822265" fill="#19A764" p-id="2125"></path><path d="M767.956146 34.127827a218.586549 218.586549 0 0 1 31.738562 2.388924l-124.565324 125.418512-23.718603 23.88924 23.547965 24.059878 139.069506 142.14098 24.230516 24.742427 24.401152-24.57179 124.394687-125.247874a229.848619 229.848619 0 0 1-62.623937 195.379858 215.344438 215.344438 0 0 1-154.938787 65.524774 220.122286 220.122286 0 0 1-109.549231-29.349638l-23.88924-13.821632-18.258205 20.476492-70.473259 78.663855-21.329679 23.718603 22.353504 22.865416 50.338042 51.191229 24.401152 24.913065 24.401153-24.913065 30.032188-30.714738a4.607211 4.607211 0 0 1 6.65486 0l244.011526 251.690211a6.65486 6.65486 0 0 1 0 9.043784l-111.255605 113.644529a4.777848 4.777848 0 0 1-3.412749 1.535737 4.607211 4.607211 0 0 1-3.242111-1.3651L566.092066 733.741294a6.825497 6.825497 0 0 1 0-9.214422l27.472626-27.984538 23.377328-23.889241-23.377328-23.88924L546.127486 600.132185l-25.424977-26.107527-25.766252 27.301989-336.667651 375.402348a43.341907 43.341907 0 0 1-62.112025 0l-26.960714-28.667088A47.437206 47.437206 0 0 1 68.34268 883.049046l382.910395-327.623868 27.643263-23.718602-25.424977-26.107527-255.956146-261.245907-10.067608-10.238246H112.537775L43.08834 119.446543 80.2873 81.735671 194.614379 153.574029v75.592382l10.238246 9.726333 258.34507 264.317381 22.353503 22.865415 24.230515-20.817766 75.08047-64.330312 23.88924-20.305854-18.258205-25.424977a229.336707 229.336707 0 0 1 21.329679-294.86148A217.392087 217.392087 0 0 1 767.956146 34.127827m0-34.127486a252.202123 252.202123 0 0 0-180.875676 76.445569A264.829293 264.829293 0 0 0 563.191229 415.16121l-75.080469 64.330312-258.515708-264.829293-1.023825-80.540867-153.573687-95.898236L0.087708 115.00997l93.168037 153.573687h80.540867L428.899571 528.976377 44.794715 858.306618a81.564692 81.564692 0 0 0 0 113.644529l27.813901 28.496451a77.469394 77.469394 0 0 0 111.255605 0l337.3502-376.426172 47.949118 49.14358-27.472626 27.984538a40.782346 40.782346 0 0 0 0 56.822265L785.019889 1009.662019a38.734697 38.734697 0 0 0 55.627803 0l111.255605-113.644529a40.782346 40.782346 0 0 0 0-56.822264L708.57432 587.505015a38.734697 38.734697 0 0 0-55.627802 0l-30.032188 30.714738-50.338042-51.191229 70.473259-78.663856a253.908497 253.908497 0 0 0 126.612973 34.127486 249.642561 249.642561 0 0 0 179.33994-75.763019 265.511842 265.511842 0 0 0 55.286528-284.964509l-165.688945 166.883407L699.701174 185.995141l165.34767-166.71277A251.860848 251.860848 0 0 0 767.956146 0.000341z" fill="#333333" p-id="2126"></path></svg>